<svg width="147" height="268" xmlns="http://www.w3.org/2000/svg" xmlns:xlink="http://www.w3.org/1999/xlink" xml:space="preserve" overflow="hidden"><defs><clipPath id="clip0"><rect x="2967" y="1674" width="147" height="268"/></clipPath></defs><g clip-path="url(#clip0)" transform="translate(-2967 -1674)"><path d="M3049.69 1923.88 3049.69 1887.04C3084.29 1882.51 3110.94 1853.53 3110.94 1818.2L3110.94 1788 3092.56 1788 3092.56 1818.2C3092.56 1846.58 3069.29 1869.53 3040.5 1869.53 3011.71 1869.53 2988.44 1846.58 2988.44 1818.2L2988.44 1788 2970.06 1788 2970.06 1818.2C2970.06 1853.53 2996.71 1882.51 3031.31 1887.04L3031.31 1923.88 2967 1923.88 2967 1942 3114 1942 3114 1923.88 3049.69 1923.88Z" fill="#FFD54B" fill-rule="evenodd"/><path d="M3040.5 1860C3062.38 1860 3080 1842.02 3080 1819.7L3049.62 1819.7 3049.62 1807.3 3080 1807.3 3080 1788.7 3049.62 1788.7 3049.62 1776.3 3080 1776.3 3080 1757.7 3049.62 1757.7 3049.62 1745.3 3080 1745.3 3080 1726.7 3049.62 1726.7 3049.62 1714.3 3080 1714.3C3080 1691.98 3062.38 1674 3040.5 1674 3018.62 1674 3001 1691.98 3001 1714.3L3001 1819.7C3001 1842.02 3018.62 1860 3040.5 1860Z" fill="#47567D" fill-rule="evenodd"/></g></svg>