<svg width="213" height="323" xmlns="http://www.w3.org/2000/svg" xmlns:xlink="http://www.w3.org/1999/xlink" xml:space="preserve" overflow="hidden"><defs><clipPath id="clip0"><rect x="2939" y="791" width="213" height="323"/></clipPath></defs><g clip-path="url(#clip0)" transform="translate(-2939 -791)"><path d="M3062.56 1062.8C3061.29 1062.8 3060.25 1061.79 3060.25 1060.53 3060.25 1059.28 3061.29 1058.26 3062.56 1058.26L3111 1058.26 3111 1052.56C3111 1042.86 3103.03 1035 3093.19 1035L3090.12 1035C3070.34 1035 3052.2 1045.83 3043.03 1063.11 3039.92 1068.97 3044.23 1076 3050.94 1076L3095.41 1076C3103.27 1076 3109.77 1070.27 3110.84 1062.81L3062.56 1062.81Z" fill="#FFD54B" fill-rule="evenodd"/><path d="M3086.08 911 3004.92 911C3002.76 911 3001 909.222 3001 907.02L3001 886.98C3001 884.785 3002.75 883 3004.92 883L3086.08 883C3088.24 883 3090 884.778 3090 886.98L3090 907.02C3089.99 909.222 3088.24 911 3086.08 911Z" fill="#3E4B6D" fill-rule="evenodd"/><path d="M2982.11 949C2981.49 949 2980.9 948.757 2980.46 948.321L2970.69 938.636C2969.77 937.731 2969.77 936.27 2970.69 935.365 2971.6 934.46 2973.07 934.46 2973.98 935.365L2982.11 943.418 3000.02 925.679C3000.93 924.774 3002.4 924.774 3003.32 925.679 3004.23 926.584 3004.23 928.045 3003.32 928.95L2983.77 948.321C2983.33 948.757 2982.73 949 2982.11 949Z" fill="#58BE78" fill-rule="evenodd"/><path d="M2982.11 990C2981.51 990 2980.91 989.777 2980.46 989.321L2970.69 979.635C2969.77 978.731 2969.77 977.27 2970.69 976.365 2971.6 975.46 2973.07 975.46 2973.98 976.365L2982.11 984.418 3000.02 966.679C3000.93 965.773 3002.4 965.773 3003.32 966.679 3004.23 967.584 3004.23 969.044 3003.32 969.95L2983.77 989.321C2983.31 989.77 2982.71 990 2982.11 990Z" fill="#58BE78" fill-rule="evenodd"/><path d="M2982.11 1031C2981.49 1031 2980.9 1030.76 2980.46 1030.32L2970.69 1020.64C2969.77 1019.73 2969.77 1018.27 2970.69 1017.36 2971.6 1016.46 2973.07 1016.46 2973.98 1017.36L2982.11 1025.42 3000.02 1007.68C3000.93 1006.77 3002.4 1006.77 3003.32 1007.68 3004.23 1008.58 3004.23 1010.04 3003.32 1010.95L2983.77 1030.32C2983.33 1030.76 2982.73 1031 2982.11 1031Z" fill="#58BE78" fill-rule="evenodd"/><path d="M2982.11 1076C2981.51 1076 2980.91 1075.78 2980.46 1075.32L2970.69 1065.64C2969.77 1064.73 2969.77 1063.27 2970.69 1062.36 2971.6 1061.46 2973.07 1061.46 2973.98 1062.36L2982.11 1070.42 3000.02 1052.68C3000.93 1051.77 3002.4 1051.77 3003.32 1052.68 3004.23 1053.58 3004.23 1055.04 3003.32 1055.95L2983.77 1075.32C2983.31 1075.78 2982.71 1076 2982.11 1076Z" fill="#58BE78" fill-rule="evenodd"/><path d="M3138.93 815.369 3074.72 815.369 3060.05 806.559C3060.07 806.209 3060.08 805.858 3060.08 805.504 3060.08 797.508 3053.54 791 3045.5 791 3037.46 791 3030.92 797.508 3030.92 805.504 3030.92 805.831 3030.93 806.15 3030.95 806.466L2996.86 826.973C2995.28 827.932 2994.26 829.602 2994.13 831.44L2993.96 834.024 2954.24 834.024C2951.6 834.024 2949.46 836.161 2949.46 838.787L2949.46 1098.55C2949.46 1101.17 2951.6 1103.31 2954.24 1103.31L3136.76 1103.31C3139.4 1103.31 3141.54 1101.17 3141.54 1098.55L3141.54 838.78C3141.54 836.155 3139.4 834.017 3136.76 834.017L3104.21 834.017C3102.92 834.017 3101.87 835.062 3101.87 836.34 3101.87 837.622 3102.92 838.663 3104.21 838.663L3136.76 838.663C3136.82 838.663 3136.88 838.715 3136.88 838.78L3136.88 1098.54C3136.88 1098.61 3136.82 1098.66 3136.76 1098.66L2954.24 1098.66C2954.18 1098.66 2954.13 1098.61 2954.13 1098.54L2954.13 838.78C2954.13 838.715 2954.18 838.663 2954.24 838.663L2996.15 838.663 2996.28 838.663 3020.16 838.663 3020.16 843.821C3020.16 844.704 3019.44 845.415 3018.56 845.415L2994.35 845.415C2991.1 845.415 2988.08 847.298 2986.67 850.222L2984.25 855.229C2983.59 856.583 2983.68 858.157 2984.49 859.428 2985.29 860.703 2986.67 861.459 2988.19 861.459L3103.5 861.459C3105.01 861.459 3106.39 860.696 3107.2 859.428 3108.01 858.16 3108.09 856.583 3107.44 855.229L3105.02 850.222C3103.6 847.305 3100.59 845.415 3097.34 845.415L3072.52 845.415C3071.63 845.415 3070.92 844.697 3070.92 843.821L3070.92 838.663 3094.85 838.663C3095.51 838.663 3096.13 838.388 3096.57 837.917 3097.01 837.44 3097.23 836.804 3097.18 836.161L3096.8 831.385C3096.66 829.575 3095.64 827.932 3094.07 826.987L3082.45 820.019 3138.93 820.019C3143.56 820.019 3147.32 823.764 3147.32 828.368L3147.32 1101.01C3147.32 1105.62 3143.56 1109.36 3138.93 1109.36L2952.06 1109.36C2947.44 1109.36 2943.67 1105.62 2943.67 1101.01L2943.67 828.361C2943.67 823.757 2947.44 820.012 2952.06 820.012L2999.26 820.012C3000.55 820.012 3001.59 818.97 3001.59 817.689 3001.59 816.41 3000.55 815.369 2999.26 815.369L2952.06 815.369C2944.86 815.369 2939 821.197 2939 828.361L2939 1101.01C2939 1108.17 2944.86 1114 2952.06 1114L3138.93 1114C3146.14 1114 3152 1108.17 3152 1101.01L3152 828.361C3152 821.197 3146.14 815.369 3138.93 815.369ZM2995.47 857.195C2993.63 857.195 2992.14 855.706 2992.14 853.878 2992.14 852.047 2993.63 850.559 2995.47 850.559 2997.31 850.559 2998.8 852.047 2998.8 853.878 2998.8 855.706 2997.31 857.195 2995.47 857.195ZM3095.53 850.559C3097.37 850.559 3098.86 852.047 3098.86 853.878 3098.86 855.706 3097.37 857.195 3095.53 857.195 3093.69 857.195 3092.2 855.706 3092.2 853.878 3092.2 852.04 3093.69 850.559 3095.53 850.559ZM3045.5 795.635C3050.97 795.635 3055.41 800.061 3055.41 805.497 3055.41 810.937 3050.97 815.369 3045.5 815.369 3040.03 815.369 3035.59 810.943 3035.59 805.504 3035.59 800.068 3040.03 795.635 3045.5 795.635ZM2998.63 834.017 2998.78 831.743C2998.8 831.413 2998.99 831.114 2999.28 830.942L3032.09 811.201C3032.85 812.967 3033.96 814.558 3035.32 815.878L3022.77 824.362C3021.13 825.468 3020.15 827.3 3020.15 829.262L3020.15 834.014 2998.63 834.014ZM3032.68 823.279 3039.45 818.706C3041.29 819.548 3043.34 820.019 3045.5 820.019 3047.67 820.019 3049.74 819.541 3051.59 818.692L3065.68 828.214C3066.03 828.454 3066.25 828.853 3066.25 829.275L3066.25 832.89 3063.84 831.664C3054.15 826.695 3043.52 823.85 3032.68 823.279ZM3092.15 831.743 3092.34 834.017 3070.92 834.017 3070.92 829.269C3070.92 827.306 3069.95 825.468 3068.31 824.369L3055.71 815.85C3057.04 814.551 3058.13 813.009 3058.88 811.284L3091.66 830.956C3091.94 831.121 3092.13 831.42 3092.15 831.743Z" fill="#424852" fill-rule="evenodd"/><path d="M3118.67 932 3017.33 932C3016.05 932 3015 933.347 3015 935 3015 936.656 3016.05 938 3017.33 938L3118.67 938C3119.95 938 3121 936.656 3121 935 3121 933.347 3119.95 932 3118.67 932Z" fill="#424852" fill-rule="evenodd"/><path d="M3118.67 976 3017.33 976C3016.05 976 3015 976.896 3015 978 3015 979.104 3016.05 980 3017.33 980L3118.67 980C3119.95 980 3121 979.104 3121 978 3121 976.896 3119.95 976 3118.67 976Z" fill="#424852" fill-rule="evenodd"/><path d="M3118.67 1018 3017.33 1018C3016.05 1018 3015 1019.35 3015 1021 3015 1022.66 3016.05 1024 3017.33 1024L3118.67 1024C3119.95 1024 3121 1022.66 3121 1021 3121 1019.35 3119.95 1018 3118.67 1018Z" fill="#424852" fill-rule="evenodd"/><path d="M3118.67 1062 3017.33 1062C3016.05 1062 3015 1062.9 3015 1064 3015 1065.1 3016.05 1066 3017.33 1066L3118.67 1066C3119.95 1066 3121 1065.1 3121 1064 3121 1062.9 3119.95 1062 3118.67 1062Z" fill="#424852" fill-rule="evenodd"/></g></svg>