<svg width="419" height="282" xmlns="http://www.w3.org/2000/svg" xmlns:xlink="http://www.w3.org/1999/xlink" xml:space="preserve" overflow="hidden"><defs><clipPath id="clip0"><rect x="1382" y="832" width="419" height="282"/></clipPath></defs><g clip-path="url(#clip0)" transform="translate(-1382 -832)"><path d="M1611.78 928.062 1600.79 926.846C1599.11 919.272 1596.09 912.201 1591.95 905.887L1598.84 897.41C1600.34 895.547 1600.19 892.877 1598.48 891.2L1587.25 880.184C1585.54 878.507 1582.81 878.348 1580.92 879.84L1572.28 886.594C1565.85 882.537 1558.64 879.554 1550.92 877.918L1549.68 867.144C1549.4 864.778 1547.37 863 1544.94 863L1529.06 863C1526.63 863 1524.6 864.778 1524.32 867.144L1523.08 877.918C1515.36 879.568 1508.15 882.537 1501.72 886.594L1493.08 879.84C1491.18 878.363 1488.46 878.507 1486.75 880.184L1475.52 891.2C1473.81 892.877 1473.65 895.56 1475.17 897.41L1482.05 905.887C1477.91 912.201 1474.87 919.272 1473.21 926.846L1462.22 928.062C1459.81 928.338 1458 930.332 1458 932.712L1458 948.288C1458 950.672 1459.81 952.662 1462.22 952.938L1473.21 954.154C1474.89 961.728 1477.91 968.8 1482.05 975.113L1475.17 983.59C1473.66 985.453 1473.81 988.123 1475.52 989.8L1486.75 1000.82C1488.46 1002.49 1491.19 1002.65 1493.08 1001.16L1501.72 994.406C1508.15 998.463 1515.36 1001.45 1523.08 1003.08L1524.32 1013.86C1524.6 1016.22 1526.63 1018 1529.06 1018L1544.94 1018C1547.37 1018 1549.4 1016.22 1549.68 1013.86L1550.92 1003.08C1558.64 1001.43 1565.85 998.463 1572.28 994.406L1580.92 1001.16C1582.82 1002.64 1585.54 1002.49 1587.25 1000.82L1598.48 989.8C1600.19 988.123 1600.35 985.44 1598.84 983.59L1591.95 975.113C1596.09 968.8 1599.13 961.728 1600.79 954.154L1611.78 952.938C1614.19 952.662 1616 950.672 1616 948.288L1616 932.712C1616 930.332 1614.19 928.338 1611.78 928.062ZM1537 972.316C1519.09 972.316 1504.57 958.07 1504.57 940.5 1504.57 922.93 1519.09 908.684 1537 908.684 1554.91 908.684 1569.43 922.93 1569.43 940.5 1569.43 958.07 1554.91 972.316 1537 972.316Z" fill="#3E4B6D" fill-rule="evenodd"/><path d="M1702.52 996.306 1696.05 995.542C1695.08 990.855 1693.29 986.47 1690.84 982.571L1694.9 977.326C1695.8 976.167 1695.7 974.511 1694.69 973.472L1688.07 966.639C1687.07 965.6 1685.46 965.511 1684.34 966.419L1679.26 970.612C1675.47 968.093 1671.22 966.258 1666.69 965.233L1665.95 958.565C1665.8 957.101 1664.59 956 1663.17 956L1653.83 956C1652.41 956 1651.2 957.101 1651.05 958.565L1650.31 965.233C1645.76 966.245 1641.52 968.093 1637.74 970.612L1632.66 966.419C1631.54 965.497 1629.93 965.6 1628.93 966.639L1622.31 973.472C1621.3 974.511 1621.21 976.167 1622.1 977.326L1626.16 982.571C1623.71 986.487 1621.94 990.868 1620.94 995.542L1614.48 996.306C1613.06 996.467 1612 997.712 1612 999.179L1612 1008.82C1612 1010.29 1613.06 1011.53 1614.48 1011.69L1620.94 1012.46C1621.92 1017.15 1623.71 1021.53 1626.16 1025.43L1622.1 1030.67C1621.2 1031.83 1621.3 1033.49 1622.31 1034.53L1628.93 1041.36C1629.93 1042.4 1631.54 1042.49 1632.66 1041.58L1637.74 1037.39C1641.53 1039.91 1645.78 1041.74 1650.31 1042.77L1651.05 1049.44C1651.2 1050.9 1652.41 1052 1653.83 1052L1663.17 1052C1664.59 1052 1665.8 1050.9 1665.95 1049.44L1666.69 1042.77C1671.24 1041.76 1675.48 1039.91 1679.26 1037.39L1684.34 1041.58C1685.46 1042.5 1687.07 1042.4 1688.07 1041.36L1694.69 1034.53C1695.7 1033.49 1695.79 1031.83 1694.9 1030.67L1690.84 1025.43C1693.29 1021.51 1695.06 1017.13 1696.05 1012.46L1702.52 1011.69C1703.94 1011.53 1705 1010.29 1705 1008.82L1705 999.179C1705.01 997.698 1703.94 996.467 1702.52 996.306ZM1658.5 1022.66C1648.52 1022.66 1640.43 1014.3 1640.43 1004 1640.43 993.697 1648.52 985.342 1658.5 985.342 1668.48 985.342 1676.58 993.697 1676.58 1004 1676.58 1014.3 1668.48 1022.66 1658.5 1022.66Z" fill="#3E4B6D" fill-rule="evenodd"/><path d="M1757 950.736 1755.35 873.735C1755.08 860.871 1744.47 850.513 1731.3 850.261L1666.84 849.002C1662.26 848.915 1658.94 853.243 1660.31 857.513 1662.59 864.626 1668.45 870.101 1675.81 872.027L1700.85 878.561C1716.66 882.689 1728.37 895.728 1730.49 911.585L1733.99 937.741C1735.16 946.494 1741.67 953.659 1750.43 955.837 1753.8 956.679 1757.07 954.146 1757 950.736Z" fill="#FFD54B" fill-rule="evenodd"/><path d="M1793.15 1076.58 1770.63 1076.58 1770.63 848.51C1770.63 839.411 1763.35 832 1754.39 832L1428.62 832C1419.67 832 1412.38 839.401 1412.38 848.51L1412.38 1061.26C1412.38 1062.95 1413.73 1064.32 1415.39 1064.32 1417.05 1064.32 1418.4 1062.95 1418.4 1061.26L1418.4 848.51C1418.4 842.788 1422.98 838.125 1428.62 838.125L1754.39 838.125C1760.02 838.125 1764.61 842.778 1764.61 848.51L1764.61 1076.58 1389.86 1076.58C1385.53 1076.58 1382 1080.17 1382 1084.58L1382 1095.11C1382 1098.16 1383.74 1100.98 1386.43 1102.31L1394.48 1106.28C1404.72 1111.33 1416.14 1114 1427.52 1114L1755.48 1114C1766.86 1114 1778.28 1111.33 1788.53 1106.28L1796.57 1102.31C1799.26 1100.98 1801 1098.16 1801 1095.11L1801 1084.58C1801.01 1080.17 1797.48 1076.58 1793.15 1076.58ZM1794.99 1095.12C1794.99 1095.84 1794.58 1096.5 1793.95 1096.81L1785.9 1100.78C1776.48 1105.43 1765.96 1107.89 1755.49 1107.89L1427.52 1107.89C1417.04 1107.89 1406.53 1105.43 1397.11 1100.78L1389.06 1096.81C1388.44 1096.5 1388.02 1095.84 1388.02 1095.12L1388.02 1084.59C1388.02 1083.55 1388.85 1082.72 1389.86 1082.72L1535.64 1082.72 1538.86 1092.35C1540.46 1097.15 1544.88 1100.37 1549.85 1100.37L1633.15 1100.37C1638.13 1100.37 1642.54 1097.15 1644.14 1092.35 1644.68 1090.76 1643.83 1089.02 1642.26 1088.47 1640.68 1087.93 1638.97 1088.79 1638.44 1090.39 1637.67 1092.7 1635.54 1094.25 1633.15 1094.25L1620.32 1094.25C1624.32 1091.76 1627.46 1087.89 1629.03 1083.17 1629.09 1083.02 1629.1 1082.87 1629.13 1082.72L1793.15 1082.72C1794.16 1082.72 1794.99 1083.56 1794.99 1084.6Z" fill="#404040" fill-rule="evenodd"/></g></svg>