<svg width="292" height="293" xmlns="http://www.w3.org/2000/svg" xmlns:xlink="http://www.w3.org/1999/xlink" xml:space="preserve" overflow="hidden"><defs><clipPath id="clip0"><rect x="1416" y="1660" width="292" height="293"/></clipPath></defs><g clip-path="url(#clip0)" transform="translate(-1416 -1660)"><path d="M1706.94 1934.38C1705.83 1932.78 1704.01 1931.83 1702.07 1931.83L1695.88 1931.83 1695.88 1831.11C1695.88 1829.94 1694.94 1829 1693.78 1829 1692.62 1829 1691.68 1829.94 1691.68 1831.11L1691.68 1931.83 1603.82 1931.83C1602.39 1931.83 1601.09 1932.68 1600.53 1934.01L1598.96 1937.67 1525.59 1937.67C1525.26 1937.67 1524.96 1937.48 1524.83 1937.17L1523.47 1934.01C1522.91 1932.68 1521.61 1931.83 1520.18 1931.83L1421.93 1931.83C1419.99 1931.83 1418.17 1932.78 1417.06 1934.37 1415.96 1935.97 1415.7 1938.01 1416.36 1939.84L1417.23 1942.18C1419.6 1948.65 1425.8 1953 1432.67 1953L1691.34 1953C1698.2 1953 1704.4 1948.65 1706.77 1942.18L1707.64 1939.84C1708.3 1938.02 1708.04 1935.97 1706.94 1934.38ZM1703.7 1938.39 1702.84 1940.73C1701.07 1945.55 1696.44 1948.79 1691.34 1948.79L1676.2 1948.79C1680.82 1946.22 1684.12 1941.54 1684.8 1936.04L1702.07 1936.04C1702.65 1936.04 1703.17 1936.31 1703.5 1936.79 1703.82 1937.26 1703.9 1937.84 1703.7 1938.39Z" fill="#404040" fill-rule="evenodd"/><path d="M1432.08 1925C1433.23 1925 1434.16 1924.06 1434.16 1922.91L1434.16 1756.28C1434.16 1753.34 1436.55 1750.94 1439.49 1750.94L1476.31 1750.94 1476.31 1758.51 1445.71 1758.51C1443.44 1758.51 1441.6 1760.37 1441.6 1762.64L1441.6 1908.86C1441.6 1911.13 1443.44 1912.99 1445.71 1912.99L1679.89 1912.99C1682.16 1912.99 1684 1911.13 1684 1908.86L1684 1839.08C1684 1837.93 1683.07 1836.99 1681.92 1836.99 1680.77 1836.99 1679.84 1837.93 1679.84 1839.08L1679.84 1908.81 1445.76 1908.81 1445.76 1762.69 1476.31 1762.69 1476.31 1892C1476.31 1894.71 1478.51 1896.91 1481.2 1896.91L1644.39 1896.91C1647.09 1896.91 1649.28 1894.7 1649.28 1892L1649.28 1851.92C1649.28 1850.77 1648.34 1849.83 1647.2 1849.83 1646.05 1849.83 1645.11 1850.77 1645.11 1851.92L1645.11 1892C1645.11 1892.41 1644.79 1892.73 1644.39 1892.73L1481.2 1892.73C1480.8 1892.73 1480.48 1892.4 1480.48 1892L1480.48 1664.91C1480.48 1664.5 1480.8 1664.18 1481.2 1664.18L1644.39 1664.18C1644.79 1664.18 1645.11 1664.5 1645.11 1664.91L1645.11 1704.42C1645.11 1705.57 1646.05 1706.51 1647.2 1706.51 1648.34 1706.51 1649.28 1705.57 1649.28 1704.42L1649.28 1664.91C1649.28 1662.2 1647.08 1660 1644.39 1660L1481.2 1660C1478.5 1660 1476.31 1662.2 1476.31 1664.91L1476.31 1746.77 1439.49 1746.77C1434.25 1746.77 1430 1751.04 1430 1756.28L1430 1922.91C1430 1924.07 1430.93 1925 1432.08 1925Z" fill="#404040" fill-rule="evenodd"/><path d="M1620.92 1705 1504.08 1705C1502.93 1705 1502 1705.67 1502 1706.5 1502 1707.33 1502.93 1708 1504.08 1708L1620.92 1708C1622.07 1708 1623 1707.33 1623 1706.5 1623 1705.67 1622.07 1705 1620.92 1705Z" fill="#404040" fill-rule="evenodd"/><path d="M1504.08 1743 1578.91 1743C1580.07 1743 1581 1742.1 1581 1741 1581 1739.9 1580.07 1739 1578.91 1739L1504.08 1739C1502.93 1739 1502 1739.9 1502 1741 1502 1742.1 1502.93 1743 1504.08 1743Z" fill="#404040" fill-rule="evenodd"/><path d="M1504.08 1777 1565.92 1777C1567.07 1777 1568 1776.33 1568 1775.5 1568 1774.67 1567.07 1774 1565.92 1774L1504.08 1774C1502.93 1774 1502 1774.67 1502 1775.5 1502 1776.33 1502.93 1777 1504.08 1777Z" fill="#404040" fill-rule="evenodd"/><path d="M1504.11 1815 1582.89 1815C1584.05 1815 1585 1813.43 1585 1811.5 1585 1809.57 1584.05 1808 1582.89 1808L1504.11 1808C1502.95 1808 1502 1809.57 1502 1811.5 1502 1813.43 1502.95 1815 1504.11 1815Z" fill="#404040" fill-rule="evenodd"/><path d="M1504.08 1849 1620.92 1849C1622.07 1849 1623 1848.33 1623 1847.5 1623 1846.67 1622.07 1846 1620.92 1846L1504.08 1846C1502.93 1846 1502 1846.67 1502 1847.5 1502 1848.33 1502.93 1849 1504.08 1849Z" fill="#404040" fill-rule="evenodd"/><path d="M1598.61 1884 1525.38 1884C1520.68 1884 1517.6 1879.17 1519.64 1875.01L1522.06 1870.11C1525.11 1863.93 1531.49 1860 1538.5 1860L1579.97 1860C1590.35 1860 1599.83 1865.83 1604.36 1875.01 1606.4 1879.17 1603.32 1884 1598.61 1884Z" fill="#FFD54B" fill-rule="evenodd"/><path d="M1632.88 1845.43 1656.12 1845.43C1655.59 1851.42 1650.58 1856 1644.5 1856 1638.42 1856 1633.41 1851.42 1632.88 1845.43ZM1626.62 1827.81 1662.38 1827.81C1665.43 1827.81 1667.75 1830.1 1667.75 1833.09 1667.75 1836.09 1665.43 1838.38 1662.38 1838.38L1626.62 1838.38C1623.58 1838.38 1621.25 1836.09 1621.25 1833.09 1621.25 1830.1 1623.58 1827.81 1626.62 1827.81ZM1626.62 1810.19 1662.38 1810.19C1665.43 1810.19 1667.75 1812.48 1667.75 1815.48 1667.75 1818.47 1665.43 1820.76 1662.38 1820.76L1626.62 1820.76C1623.58 1820.76 1621.25 1818.47 1621.25 1815.48 1621.25 1812.48 1623.58 1810.19 1626.62 1810.19ZM1644.5 1708C1669.9 1708.18 1690.46 1728.26 1691 1753.28L1691 1754.87C1690.82 1760.33 1689.75 1765.61 1687.78 1770.72 1685.99 1775.48 1683.13 1779.89 1679.73 1783.76 1675.44 1788.34 1670.79 1797.33 1668.82 1801.21 1668.29 1802.44 1667.03 1803.14 1665.6 1803.14L1623.4 1803.14C1621.97 1803.14 1620.71 1802.44 1620.18 1801.21 1618.21 1797.33 1613.56 1788.34 1609.27 1783.76 1605.87 1779.89 1603.19 1775.48 1601.22 1770.72 1599.25 1765.61 1598.18 1760.33 1598 1754.87L1598 1753.28C1598.54 1728.26 1619.1 1708.18 1644.5 1708Z" fill="#3E4B6D" fill-rule="evenodd"/><path d="M1637.5 1793 1645.75 1764.94 1633 1764.94 1639.32 1731 1658.19 1731 1650.25 1755.84 1663 1755.84 1637.5 1793Z" fill="#FFFFFF" fill-rule="evenodd"/><path d="M1609 1755C1609 1735.12 1625.12 1719 1645 1719 1664.88 1719 1681 1735.12 1681 1755 1681 1774.88 1664.88 1791 1645 1791 1625.12 1791 1609 1774.88 1609 1755Z" fill="#3E4B6D" fill-rule="evenodd"/></g></svg>