<svg width="1894" height="551" xmlns="http://www.w3.org/2000/svg" xmlns:xlink="http://www.w3.org/1999/xlink" xml:space="preserve" overflow="hidden"><defs><clipPath id="clip0"><rect x="2355" y="134" width="1894" height="551"/></clipPath></defs><g clip-path="url(#clip0)" transform="translate(-2355 -134)"><path d="M2680.07 134 2885 616.434 2669.57 615.121 2652.6 575.164C2683.6 559.684 2703.55 526.078 2700.01 489.826L2690.56 392.174C2685.8 345.088 2643.49 310.232 2596.34 315.044 2551.29 319.362 2517.44 358.214 2518.38 402.392L2595.26 394.885C2599.64 394.569 2603.6 397.79 2604.13 402.075 2604.43 406.457 2601.2 410.396 2596.82 410.716L2519.62 418.359 2521.19 434.19 2598.39 426.546C2602.76 426.23 2606.63 429.234 2607.15 433.526 2607.55 438.115 2604.23 441.84 2599.93 442.38L2522.75 450.02 2524.25 465.754 2601.55 458.33C2605.84 457.787 2609.78 461.001 2610.09 465.376 2610.63 469.662 2607.4 473.618 2603.1 474.157L2525.97 481.636 2527.53 497.466 2604.73 489.823C2609.11 489.506 2613.07 492.73 2613.37 497.112 2613.9 501.395 2610.67 505.337 2606.29 505.653L2529.32 513.221C2536.8 555.787 2575.32 586.595 2618.87 584.203L2614.98 575.037C2605.78 574.037 2597.2 568.153 2593.35 559.086 2587.65 545.669 2593.86 529.88 2607.32 524.164 2608.07 523.844 2608.82 523.786 2609.59 523.459 2609.13 523.906 2608.42 524.349 2607.96 524.803 2607.64 524.937 2607.28 525.346 2607.22 525.491L2607.01 525.583C2606.38 526.243 2605.82 526.742 2605.18 527.384 2604.54 528.309 2604 529.172 2603.36 530.096L2603.14 530.447 2602.73 531.017C2602.31 531.57 2602.17 532.141 2601.89 532.656L2601.76 532.969 2601.52 533.33 2601.61 533.55 2601.41 534.007 2601.19 534.1 2601.02 534.571 2600.82 535.049 2600.73 535.719 2600.54 536.197 2600.43 536.873 2600.08 537.54 2599.89 538.018 2599.98 538.234 2599.76 538.327 2599.68 538.74 2599.24 539.836 2599.33 540.056 2599.25 540.482 2599.04 540.575 2599.13 540.795 2599.04 541.204 2598.96 541.891 2598.97 542.52 2598.78 542.998 2598.87 543.218 2598.88 543.861 2598.9 544.486 2598.71 544.968 2598.84 545.284 2598.72 545.596 2598.9 546.03 2598.77 546.342 2598.92 546.676 2598.83 547.085 2598.93 547.305 2598.85 547.731 2598.87 548.377 2598.96 548.597C2599.1 548.913 2599.06 549.442 2599.11 549.559L2599.25 549.875 2599.12 550.188 2599.49 551.058 2599.27 551.15 2599.84 552.477 2599.76 552.886 2600.64 554.962C2604.58 564.242 2613.06 569.916 2622.25 570.919L2670.71 685 2558.91 614.826 2414.12 613.791 2355 474.614Z" fill="#47567D" fill-rule="evenodd"/><path d="M2678 134 2839.77 134 2939.84 468.295 3039.23 134 3201 134 3037.86 620 2841.14 620Z" fill="#FFD54B" fill-rule="evenodd"/><path d="M4057.57 151C4113.63 151 4158.13 163.957 4191.12 189.872 4224.1 215.787 4241.47 252.283 4243.19 299.362L4088.59 299.362C4088.18 286.404 4084.95 277.118 4078.89 271.503 4072.88 265.889 4065.55 263.081 4056.92 263.081 4050.86 263.081 4045.91 265.132 4042.03 269.236 4038.17 273.339 4036.21 279.062 4036.21 286.404 4036.21 296.77 4041.92 305.3 4053.38 311.995 4064.79 318.69 4082.99 326.788 4108.02 336.29 4136.88 347.087 4160.71 357.453 4179.46 367.388 4198.24 377.321 4214.5 391.145 4228.3 408.85 4242.09 426.559 4249 448.803 4249 475.581 4249 503.655 4242.09 528.814 4228.3 551.058 4214.5 573.301 4194.45 590.687 4168.14 603.211 4141.87 615.736 4110.6 622 4074.39 622 4019.64 622 3974.44 609.149 3938.88 583.45 3903.32 557.751 3884.03 520.068 3881 470.4L4033.63 470.4C4035.8 496.745 4047.43 509.919 4068.54 509.919 4076.32 509.919 4082.88 508.083 4088.28 504.411 4093.68 500.74 4096.37 495.019 4096.37 487.242 4096.37 476.447 4090.55 467.701 4078.89 461.004 4067.27 454.31 4049.15 446.644 4024.59 438.004 3995.25 427.639 3971.01 417.49 3951.81 407.554 3932.62 397.622 3916.15 383.151 3902.36 364.15 3888.53 345.145 3881.86 320.741 3882.31 290.939 3882.31 261.138 3889.94 235.763 3905.25 214.815 3920.55 193.867 3941.46 177.994 3967.98 167.196 3994.5 156.399 4024.35 151 4057.57 151Z" fill="#FFD54B" fill-rule="evenodd"/><path d="M3685 158 3829 158 3829 619 3685 619 3685 158Z" fill="#FFD54B" fill-rule="evenodd"/><path d="M3163.19 389.25 3164.79 415.953 3163.19 415.953ZM3163.19 383.1 3163.19 389.25 3163 386.177ZM3631.56 364.951 3633 364.951 3633 415.953 3631.04 415.953 3632.83 386.177ZM3490.97 364.951 3490.97 415.953 3523.73 415.953 3523.73 364.951ZM3163.19 364.951 3164.28 364.951 3163.19 383.1ZM3545.59 339.722 3545.59 442.277 3578.38 442.277 3578.38 339.722ZM3436.33 339.722 3436.33 442.277 3469.12 442.277 3469.12 339.722ZM3217.81 339.722 3217.81 442.277 3250.59 442.277 3250.59 339.722ZM3381.7 313.946 3381.7 467.505 3414.48 467.505 3414.48 313.946ZM3272.44 288.17 3272.44 492.733 3305.22 492.733 3305.22 288.17ZM3327.07 237.166 3327.07 544.285 3359.85 544.285 3359.85 237.166ZM3398.55 151C3441.57 151 3480.95 161.042 3516.67 181.126 3552.35 201.21 3580.65 229.176 3601.51 265.025 3617.15 291.911 3626.96 321.349 3630.87 353.337L3631.56 364.951 3600.24 364.951 3600.24 415.953 3631.04 415.953 3630.87 419.016C3626.96 451.003 3617.15 480.442 3601.51 507.327 3580.65 543.174 3552.24 571.249 3516.32 591.55 3480.4 611.851 3441.16 622 3398.55 622 3355.53 622 3316.05 611.851 3280.13 591.55 3244.21 571.249 3215.7 543.174 3194.62 507.327 3178.81 480.442 3168.93 451.003 3164.98 419.016L3164.79 415.953 3195.96 415.953 3195.96 364.951 3164.28 364.951 3164.98 353.337C3168.93 321.349 3178.81 291.911 3194.62 265.025 3215.7 229.176 3244.21 201.21 3280.13 181.126 3316.05 161.042 3355.53 151 3398.55 151Z" fill="#5D9B7C" fill-rule="evenodd"/></g></svg>